{"title":"Whiplash.2014.BRRip.480p.x264.AAC-VYTO [P2PDL]","uid":11694326,"size":399651829,"categoryP":"video","categoryS":"movies","magnet":"?xt=urn:btih:728c66eaee41766f2a43989083f58e49b548d76a&amp;dn=Whiplash.2014.BRRip.480p.x264.AAC-VYTO+%5BP2PDL%5D&amp;tr=udp%3A%2F%2Ftracker.openbittorrent.com%3A80&amp;tr=udp%3A%2F%2Fopen.demonii.com%3A1337&amp;tr=udp%3A%2F%2Ftracker.coppersurfer.tk%3A6969&amp;tr=udp%3A%2F%2Fexodus.desync.com%3A6969","seeders":12,"leechers":0,"uploader":"ValidusVyto","files":6,"time":1423653638,"description":"Whiplash.2014.BRRip.480p.x264.AAC-VYTO\n\n\nGenre: Drama | Music\nIMDb: http://www.imdb.com/title/tt2582802/\n\nFormat                      : MPEG-4\nFile size                   : 376 MiB\nDuration                    : 1h 46mn\nOverall bit rate            : 493 Kbps\n\nVideo\nFormat                      : AVC\nDuration                    : 1h 46mn\nBit rate                    : 458 Kbps\nWidth                       : 720 pixels\nHeight                      : 304 pixels\nDisplay aspect ratio        : 2.35:1\nFrame rate mode             : Constant\nFrame rate                  : 23.976 fps\nBit depth                   : 8 bits\nStream size                 : 349 MiB (93%)\nWriting library             : x264 core 142 r2491 24e4fed\n\nAudio\nFormat                      : AAC\nBit rate mode               : Variable\nBit rate                    : 32.0 Kbps\nChannel(s)                  : 2 channels\nChannel positions           : Front:\nSampling rate               : 48.0 KHz\nStream size                 : 24.4 MiB (6%)\nLanguage                    : English \n\nSubtitle                    : Yes(English)\nSource                      : 720p.BluRay.x264-SPARKS\n &lt;a href=&quot;\nhttp://someimage.com/lZ2zGeH&quot; rel=&quot;nofollow&quot; target=&quot;_NEW&quot;&gt;\nhttp://someimage.com/lZ2zGeH&lt;/a&gt; &lt;a href=&quot;\nhttp://someimage.com/ACGUA5y&quot; rel=&quot;nofollow&quot; target=&quot;_NEW&quot;&gt;\nhttp://someimage.com/ACGUA5y&lt;/a&gt; &lt;a href=&quot;\nhttp://someimage.com/09cxvUR&quot; rel=&quot;nofollow&quot; target=&quot;_NEW&quot;&gt;\nhttp://someimage.com/09cxvUR&lt;/a&gt; &lt;a href=&quot;\nhttp://someimage.com/8O0Fsn5&quot; rel=&quot;nofollow&quot; target=&quot;_NEW&quot;&gt;\nhttp://someimage.com/8O0Fsn5&lt;/a&gt; &lt;a href=&quot;\nhttp://someimage.com/TcI8dWp&quot; rel=&quot;nofollow&quot; target=&quot;_NEW&quot;&gt;\nhttp://someimage.com/TcI8dWp&lt;/a&gt; &lt;a href=&quot;\nhttp://someimage.com/acBdJja&quot; rel=&quot;nofollow&quot; target=&quot;_NEW&quot;&gt;\nhttp://someimage.com/acBdJja&lt;/a&gt; &lt;a href=&quot;\nhttp://someimage.com/lRPzDBf&quot; rel=&quot;nofollow&quot; target=&quot;_NEW&quot;&gt;\nhttp://someimage.com/lRPzDBf&lt;/a&gt; &lt;a href=&quot;\nhttp://someimage.com/7OiRTsL&quot; rel=&quot;nofollow&quot; target=&quot;_NEW&quot;&gt;\nhttp://someimage.com/7OiRTsL&lt;/a&gt; &lt;a href=&quot;\nhttp://someimage.com/lecqlcL&quot; rel=&quot;nofollow&quot; target=&quot;_NEW&quot;&gt;\nhttp://someimage.com/lecqlcL&lt;/a&gt;\n\n----------------------------------------------------------------------------------------------------\n\n\nEncoder Notes: Looking For Early Access To Anything You Can Provide DVDScr, R5, DVDR, BluRay, Direct\nAudio, Music Releases and Seedboxes. If You Got anything to offer please contact us.\n\nWe require dedicated servers, so as to do more and fast releases of movies.\nSupport us by sending us LC - LezHMTo2cYaiztCCcWxB4cNFVNVpWW3GSx","torrent":{"xt":"urn:btih:728c66eaee41766f2a43989083f58e49b548d76a","amp;dn":"Whiplash.2014.BRRip.480p.x264.AAC-VYTO+%5BP2PDL%5D","amp;tr":["udp%3A%2F%2Ftracker.openbittorrent.com%3A80","udp%3A%2F%2Fopen.demonii.com%3A1337","udp%3A%2F%2Ftracker.coppersurfer.tk%3A6969","udp%3A%2F%2Fexodus.desync.com%3A6969"],"infoHash":"728c66eaee41766f2a43989083f58e49b548d76a","infoHashBuffer":{"type":"Buffer","data":[114,140,102,234,238,65,118,111,42,67,152,144,131,245,142,73,181,72,215,106]},"announce":[],"urlList":[]}}